<svg width="350" height="350" viewBox="0 0 350 350" fill="none" xmlns="http://www.w3.org/2000/svg">
<path d="M299.9 350H50.1C22.43 350 0 327.57 0 299.9V50.1C0 22.43 22.43 0 50.1 0H299.9C327.57 0 350 22.43 350 50.1V299.9C350 327.57 327.57 350 299.9 350Z" fill="#1769FF"/>
<path d="M36.7598 236.218L62.4198 210.258C74.4598 218.398 89.6498 224.118 102.22 224.118C115.83 224.118 121.6 220.378 121.6 213.998C121.6 207.178 112.96 204.978 98.5598 200.138L77.3498 192.658C59.0198 186.498 43.0498 173.518 43.0498 152.838C43.0498 128.418 69.2298 108.398 106.41 108.398C125.79 108.398 147.25 114.558 162.96 127.538L140.44 151.298C128.92 144.478 118.97 140.958 106.4 140.958C95.3998 140.958 88.5998 144.258 88.5998 150.638C88.5998 157.458 98.2898 159.878 113.73 164.938L134.41 171.758C155.62 178.798 167.66 191.118 167.66 210.918C167.66 235.118 143.57 256.678 101.16 256.678C79.6998 256.678 55.0898 250.078 36.7598 236.218Z" fill="white"/>
<path d="M194.9 111.039H304.87V142.719H239.94V165.159H295.45V196.839H239.94V222.359H307.49V254.039H194.9V111.039Z" fill="white"/>
</svg>
